<svg width="390" height="390" viewBox="0 0 390 390" fill="none" xmlns="http://www.w3.org/2000/svg">
<circle cx="195" cy="195" r="195" fill="black"/>
<path d="M149.123 121.715C129.264 115.142 111.946 107.596 100.016 100.772C94.0181 97.3416 89.591 94.2106 86.887 91.6074C85.5901 90.359 84.8629 89.3953 84.5087 88.7399C85.184 88.4253 86.3426 88.0858 88.1282 87.8577C91.8513 87.382 97.2723 87.5109 104.133 88.3365C117.778 89.9785 136.177 94.2562 156.036 100.83C175.895 107.403 193.212 114.948 205.143 121.772C211.141 125.203 215.568 128.334 218.272 130.937C219.569 132.186 220.296 133.15 220.65 133.805C219.975 134.12 218.816 134.459 217.03 134.687C213.307 135.163 207.886 135.034 201.026 134.208C187.38 132.566 168.981 128.289 149.123 121.715ZM84.284 88.2097C84.2844 88.2098 84.2858 88.2161 84.2873 88.2282C84.2844 88.2156 84.2837 88.2096 84.284 88.2097ZM84.0257 89.0185C84.0174 89.0272 84.0124 89.0314 84.0121 89.0313C84.0117 89.0312 84.0159 89.0268 84.0257 89.0185ZM220.875 134.335C220.874 134.335 220.873 134.329 220.871 134.317C220.874 134.329 220.875 134.335 220.875 134.335ZM221.133 133.526C221.141 133.518 221.146 133.513 221.147 133.514C221.147 133.514 221.143 133.518 221.133 133.526Z" fill="white" stroke="white" stroke-width="9"/>
<circle cx="278.524" cy="152.436" r="59.5" transform="rotate(108.315 278.524 152.436)" stroke="white" stroke-width="9"/>
<path d="M76.0909 251H70.4545C70.1212 249.379 69.5379 247.955 68.7045 246.727C67.8864 245.5 66.8864 244.47 65.7045 243.636C64.5379 242.788 63.2424 242.152 61.8182 241.727C60.3939 241.303 58.9091 241.091 57.3636 241.091C54.5455 241.091 51.9924 241.803 49.7045 243.227C47.4318 244.652 45.6212 246.75 44.2727 249.523C42.9394 252.295 42.2727 255.697 42.2727 259.727C42.2727 263.758 42.9394 267.159 44.2727 269.932C45.6212 272.705 47.4318 274.803 49.7045 276.227C51.9924 277.652 54.5455 278.364 57.3636 278.364C58.9091 278.364 60.3939 278.152 61.8182 277.727C63.2424 277.303 64.5379 276.674 65.7045 275.841C66.8864 274.992 67.8864 273.955 68.7045 272.727C69.5379 271.485 70.1212 270.061 70.4545 268.455H76.0909C75.6667 270.833 74.8939 272.962 73.7727 274.841C72.6515 276.72 71.2576 278.318 69.5909 279.636C67.9242 280.939 66.053 281.932 63.9773 282.614C61.9167 283.295 59.7121 283.636 57.3636 283.636C53.3939 283.636 49.8636 282.667 46.7727 280.727C43.6818 278.788 41.25 276.03 39.4773 272.455C37.7045 268.879 36.8182 264.636 36.8182 259.727C36.8182 254.818 37.7045 250.576 39.4773 247C41.25 243.424 43.6818 240.667 46.7727 238.727C49.8636 236.788 53.3939 235.818 57.3636 235.818C59.7121 235.818 61.9167 236.159 63.9773 236.841C66.053 237.523 67.9242 238.523 69.5909 239.841C71.2576 241.144 72.6515 242.735 73.7727 244.614C74.8939 246.477 75.6667 248.606 76.0909 251ZM94.7443 283.818C92.5322 283.818 90.5246 283.402 88.7216 282.568C86.9186 281.72 85.4867 280.5 84.4261 278.909C83.3655 277.303 82.8352 275.364 82.8352 273.091C82.8352 271.091 83.2292 269.47 84.017 268.227C84.8049 266.97 85.858 265.985 87.1761 265.273C88.4943 264.561 89.9489 264.03 91.5398 263.682C93.1458 263.318 94.7595 263.03 96.3807 262.818C98.5019 262.545 100.222 262.341 101.54 262.205C102.873 262.053 103.843 261.803 104.449 261.455C105.07 261.106 105.381 260.5 105.381 259.636V259.455C105.381 257.212 104.767 255.47 103.54 254.227C102.328 252.985 100.487 252.364 98.017 252.364C95.4564 252.364 93.4489 252.924 91.9943 254.045C90.5398 255.167 89.517 256.364 88.9261 257.636L83.8352 255.818C84.7443 253.697 85.9564 252.045 87.4716 250.864C89.0019 249.667 90.6686 248.833 92.4716 248.364C94.2898 247.879 96.0777 247.636 97.8352 247.636C98.9564 247.636 100.244 247.773 101.699 248.045C103.169 248.303 104.585 248.841 105.949 249.659C107.328 250.477 108.472 251.712 109.381 253.364C110.29 255.015 110.744 257.227 110.744 260V283H105.381V278.273H105.108C104.744 279.03 104.138 279.841 103.29 280.705C102.441 281.568 101.313 282.303 99.9034 282.909C98.4943 283.515 96.7746 283.818 94.7443 283.818ZM95.5625 279C97.6837 279 99.4716 278.583 100.926 277.75C102.396 276.917 103.502 275.841 104.244 274.523C105.002 273.205 105.381 271.818 105.381 270.364V265.455C105.153 265.727 104.653 265.977 103.881 266.205C103.123 266.417 102.244 266.606 101.244 266.773C100.259 266.924 99.2973 267.061 98.358 267.182C97.4337 267.288 96.6837 267.379 96.108 267.455C94.714 267.636 93.411 267.932 92.1989 268.341C91.0019 268.735 90.0322 269.333 89.2898 270.136C88.5625 270.924 88.1989 272 88.1989 273.364C88.1989 275.227 88.8883 276.636 90.267 277.591C91.661 278.53 93.4261 279 95.5625 279ZM135.716 248.091V252.636H117.625V248.091H135.716ZM122.898 239.727H128.261V273C128.261 274.515 128.481 275.652 128.92 276.409C129.375 277.152 129.951 277.652 130.648 277.909C131.36 278.152 132.11 278.273 132.898 278.273C133.489 278.273 133.973 278.242 134.352 278.182C134.731 278.106 135.034 278.045 135.261 278L136.352 282.818C135.989 282.955 135.481 283.091 134.83 283.227C134.178 283.379 133.352 283.455 132.352 283.455C130.837 283.455 129.352 283.129 127.898 282.477C126.458 281.826 125.261 280.833 124.307 279.5C123.367 278.167 122.898 276.485 122.898 274.455V239.727ZM158.045 283.727C154.682 283.727 151.78 282.985 149.341 281.5C146.917 280 145.045 277.909 143.727 275.227C142.424 272.53 141.773 269.394 141.773 265.818C141.773 262.242 142.424 259.091 143.727 256.364C145.045 253.621 146.879 251.485 149.227 249.955C151.591 248.409 154.348 247.636 157.5 247.636C159.318 247.636 161.114 247.939 162.886 248.545C164.659 249.152 166.273 250.136 167.727 251.5C169.182 252.848 170.341 254.636 171.205 256.864C172.068 259.091 172.5 261.833 172.5 265.091V267.364H145.591V262.727H167.045C167.045 260.758 166.652 259 165.864 257.455C165.091 255.909 163.985 254.689 162.545 253.795C161.121 252.902 159.439 252.455 157.5 252.455C155.364 252.455 153.515 252.985 151.955 254.045C150.409 255.091 149.22 256.455 148.386 258.136C147.553 259.818 147.136 261.621 147.136 263.545V266.636C147.136 269.273 147.591 271.508 148.5 273.341C149.424 275.159 150.705 276.545 152.341 277.5C153.977 278.439 155.879 278.909 158.045 278.909C159.455 278.909 160.727 278.712 161.864 278.318C163.015 277.909 164.008 277.303 164.841 276.5C165.674 275.682 166.318 274.667 166.773 273.455L171.955 274.909C171.409 276.667 170.492 278.212 169.205 279.545C167.917 280.864 166.326 281.894 164.432 282.636C162.538 283.364 160.409 283.727 158.045 283.727ZM194.75 296.818C192.159 296.818 189.932 296.485 188.068 295.818C186.205 295.167 184.652 294.303 183.409 293.227C182.182 292.167 181.205 291.03 180.477 289.818L184.75 286.818C185.235 287.455 185.848 288.182 186.591 289C187.333 289.833 188.348 290.553 189.636 291.159C190.939 291.78 192.644 292.091 194.75 292.091C197.568 292.091 199.894 291.409 201.727 290.045C203.561 288.682 204.477 286.545 204.477 283.636V276.545H204.023C203.629 277.182 203.068 277.97 202.341 278.909C201.629 279.833 200.598 280.659 199.25 281.386C197.917 282.098 196.114 282.455 193.841 282.455C191.023 282.455 188.492 281.788 186.25 280.455C184.023 279.121 182.258 277.182 180.955 274.636C179.667 272.091 179.023 269 179.023 265.364C179.023 261.788 179.652 258.674 180.909 256.023C182.167 253.356 183.917 251.295 186.159 249.841C188.402 248.371 190.992 247.636 193.932 247.636C196.205 247.636 198.008 248.015 199.341 248.773C200.689 249.515 201.72 250.364 202.432 251.318C203.159 252.258 203.72 253.03 204.114 253.636H204.659V248.091H209.841V284C209.841 287 209.159 289.439 207.795 291.318C206.447 293.212 204.629 294.598 202.341 295.477C200.068 296.371 197.538 296.818 194.75 296.818ZM194.568 277.636C196.72 277.636 198.538 277.144 200.023 276.159C201.508 275.174 202.636 273.758 203.409 271.909C204.182 270.061 204.568 267.848 204.568 265.273C204.568 262.758 204.189 260.538 203.432 258.614C202.674 256.689 201.553 255.182 200.068 254.091C198.583 253 196.75 252.455 194.568 252.455C192.295 252.455 190.402 253.03 188.886 254.182C187.386 255.333 186.258 256.879 185.5 258.818C184.758 260.758 184.386 262.909 184.386 265.273C184.386 267.697 184.765 269.841 185.523 271.705C186.295 273.553 187.432 275.008 188.932 276.068C190.447 277.114 192.326 277.636 194.568 277.636ZM233.841 283.727C230.689 283.727 227.924 282.977 225.545 281.477C223.182 279.977 221.333 277.879 220 275.182C218.682 272.485 218.023 269.333 218.023 265.727C218.023 262.091 218.682 258.917 220 256.205C221.333 253.492 223.182 251.386 225.545 249.886C227.924 248.386 230.689 247.636 233.841 247.636C236.992 247.636 239.75 248.386 242.114 249.886C244.492 251.386 246.341 253.492 247.659 256.205C248.992 258.917 249.659 262.091 249.659 265.727C249.659 269.333 248.992 272.485 247.659 275.182C246.341 277.879 244.492 279.977 242.114 281.477C239.75 282.977 236.992 283.727 233.841 283.727ZM233.841 278.909C236.235 278.909 238.205 278.295 239.75 277.068C241.295 275.841 242.439 274.227 243.182 272.227C243.924 270.227 244.295 268.061 244.295 265.727C244.295 263.394 243.924 261.22 243.182 259.205C242.439 257.189 241.295 255.561 239.75 254.318C238.205 253.076 236.235 252.455 233.841 252.455C231.447 252.455 229.477 253.076 227.932 254.318C226.386 255.561 225.242 257.189 224.5 259.205C223.758 261.22 223.386 263.394 223.386 265.727C223.386 268.061 223.758 270.227 224.5 272.227C225.242 274.227 226.386 275.841 227.932 277.068C229.477 278.295 231.447 278.909 233.841 278.909ZM257.847 283V248.091H263.028V253.364H263.392C264.028 251.636 265.18 250.235 266.847 249.159C268.513 248.083 270.392 247.545 272.483 247.545C272.877 247.545 273.369 247.553 273.96 247.568C274.551 247.583 274.998 247.606 275.301 247.636V253.091C275.119 253.045 274.703 252.977 274.051 252.886C273.415 252.78 272.741 252.727 272.028 252.727C270.331 252.727 268.816 253.083 267.483 253.795C266.165 254.492 265.119 255.462 264.347 256.705C263.589 257.932 263.21 259.333 263.21 260.909V283H257.847ZM281.659 283V248.091H287.023V283H281.659ZM284.386 242.273C283.341 242.273 282.439 241.917 281.682 241.205C280.939 240.492 280.568 239.636 280.568 238.636C280.568 237.636 280.939 236.78 281.682 236.068C282.439 235.356 283.341 235 284.386 235C285.432 235 286.326 235.356 287.068 236.068C287.826 236.78 288.205 237.636 288.205 238.636C288.205 239.636 287.826 240.492 287.068 241.205C286.326 241.917 285.432 242.273 284.386 242.273ZM311.483 283.727C308.119 283.727 305.218 282.985 302.778 281.5C300.354 280 298.483 277.909 297.165 275.227C295.862 272.53 295.21 269.394 295.21 265.818C295.21 262.242 295.862 259.091 297.165 256.364C298.483 253.621 300.316 251.485 302.665 249.955C305.028 248.409 307.786 247.636 310.938 247.636C312.756 247.636 314.551 247.939 316.324 248.545C318.097 249.152 319.71 250.136 321.165 251.5C322.619 252.848 323.778 254.636 324.642 256.864C325.506 259.091 325.938 261.833 325.938 265.091V267.364H299.028V262.727H320.483C320.483 260.758 320.089 259 319.301 257.455C318.528 255.909 317.422 254.689 315.983 253.795C314.559 252.902 312.877 252.455 310.938 252.455C308.801 252.455 306.953 252.985 305.392 254.045C303.847 255.091 302.657 256.455 301.824 258.136C300.991 259.818 300.574 261.621 300.574 263.545V266.636C300.574 269.273 301.028 271.508 301.938 273.341C302.862 275.159 304.142 276.545 305.778 277.5C307.415 278.439 309.316 278.909 311.483 278.909C312.892 278.909 314.165 278.712 315.301 278.318C316.453 277.909 317.445 277.303 318.278 276.5C319.112 275.682 319.756 274.667 320.21 273.455L325.392 274.909C324.847 276.667 323.93 278.212 322.642 279.545C321.354 280.864 319.763 281.894 317.869 282.636C315.975 283.364 313.847 283.727 311.483 283.727ZM358.824 255.909L354.006 257.273C353.703 256.47 353.256 255.689 352.665 254.932C352.089 254.159 351.301 253.523 350.301 253.023C349.301 252.523 348.021 252.273 346.46 252.273C344.324 252.273 342.544 252.765 341.119 253.75C339.71 254.72 339.006 255.955 339.006 257.455C339.006 258.788 339.491 259.841 340.46 260.614C341.43 261.386 342.945 262.03 345.006 262.545L350.188 263.818C353.309 264.576 355.634 265.735 357.165 267.295C358.695 268.841 359.46 270.833 359.46 273.273C359.46 275.273 358.884 277.061 357.733 278.636C356.597 280.212 355.006 281.455 352.96 282.364C350.915 283.273 348.536 283.727 345.824 283.727C342.263 283.727 339.316 282.955 336.983 281.409C334.65 279.864 333.172 277.606 332.551 274.636L337.642 273.364C338.127 275.242 339.044 276.652 340.392 277.591C341.756 278.53 343.536 279 345.733 279C348.233 279 350.218 278.47 351.688 277.409C353.172 276.333 353.915 275.045 353.915 273.545C353.915 272.333 353.491 271.318 352.642 270.5C351.794 269.667 350.491 269.045 348.733 268.636L342.915 267.273C339.718 266.515 337.369 265.341 335.869 263.75C334.384 262.144 333.642 260.136 333.642 257.727C333.642 255.758 334.195 254.015 335.301 252.5C336.422 250.985 337.945 249.795 339.869 248.932C341.809 248.068 344.006 247.636 346.46 247.636C349.915 247.636 352.627 248.394 354.597 249.909C356.581 251.424 357.991 253.424 358.824 255.909Z" fill="white"/>
</svg>
